<svg width="26" height="30" viewBox="0 0 26 30" fill="none" xmlns="http://www.w3.org/2000/svg">
<path d="M9.26102 16.65C9.42768 16.65 13.2943 16.8166 15.5943 16.25H15.611C18.261 15.6 21.9443 13.7333 22.8943 7.63332C22.8943 7.63332 25.011 0 14.511 0H5.49436C4.67769 0 3.97769 0.599999 3.84436 1.4L0.011035 25.6666C-0.0722982 26.1666 0.327701 26.6333 0.8277 26.6333H6.54435L7.94435 17.7666C8.04435 17.1333 8.59435 16.65 9.26102 16.65Z" fill="#F8F8F8"/>
<path d="M24.361 8.81689C23.011 15.0335 18.761 18.3169 11.9944 18.3169H9.54439L7.82773 29.1835C7.76106 29.6168 8.0944 30.0002 8.52773 30.0002H11.6944C12.2611 30.0002 12.7611 29.5835 12.8444 29.0168C12.9777 28.3502 13.711 23.4835 13.861 22.6502C13.9444 22.0835 14.4444 21.6669 15.011 21.6669H15.7444C20.4444 21.6669 24.1277 19.7502 25.211 14.2335C25.6444 12.0002 25.411 10.1669 24.361 8.81689Z" fill="#F8F8F8"/>
</svg>
