<svg width="25" height="25" viewBox="0 0 25 25" fill="none" xmlns="http://www.w3.org/2000/svg">
<path d="M23.0556 25L14.3056 16.25C13.6111 16.8056 12.8125 17.2454 11.9097 17.5694C11.0069 17.8935 10.0463 18.0556 9.02778 18.0556C6.50463 18.0556 4.36944 17.1815 2.62222 15.4333C0.875001 13.6852 0.000926661 11.55 7.34862e-07 9.02778C-0.000925191 6.50556 0.873149 4.37037 2.62222 2.62222C4.3713 0.874074 6.50648 0 9.02778 0C11.5491 0 13.6847 0.874074 15.4347 2.62222C17.1847 4.37037 18.0583 6.50556 18.0556 9.02778C18.0556 10.0463 17.8935 11.0069 17.5694 11.9097C17.2454 12.8125 16.8056 13.6111 16.25 14.3056L25 23.0556L23.0556 25ZM9.02778 15.2778C10.7639 15.2778 12.2398 14.6704 13.4556 13.4556C14.6713 12.2407 15.2787 10.7648 15.2778 9.02778C15.2769 7.29074 14.6694 5.81528 13.4556 4.60139C12.2417 3.3875 10.7657 2.77963 9.02778 2.77778C7.28981 2.77593 5.81435 3.3838 4.60139 4.60139C3.38843 5.81898 2.78056 7.29444 2.77778 9.02778C2.775 10.7611 3.38287 12.237 4.60139 13.4556C5.81991 14.6741 7.29537 15.2815 9.02778 15.2778Z" fill="#F8F8F8"/>
</svg>
