<svg width="30" height="30" viewBox="0 0 30 30" fill="none" xmlns="http://www.w3.org/2000/svg">
<g clip-path="url(#clip0_3_162)">
<path d="M20.0187 17.9725C20.0187 17.5725 19.85 17.3525 19.5887 17.195C19.3263 17.045 19.0088 17.0263 18.5763 17.0263H16.6475V20.5513H17.4912V19.2675H18.3913C18.6912 19.2675 18.8787 19.2975 18.9888 19.4237C19.1388 19.5863 19.1187 19.8988 19.1187 20.1113V20.5487H19.9438V19.855C19.9412 19.5425 19.9225 19.385 19.8088 19.21C19.7006 19.0766 19.5579 18.9754 19.3962 18.9175L19.4212 18.9075C19.6044 18.8313 19.7599 18.7012 19.8671 18.5343C19.9743 18.3675 20.0281 18.1719 20.0212 17.9737L20.0187 17.9725ZM18.9313 18.4813L18.8962 18.4788C18.7837 18.545 18.6525 18.5513 18.4837 18.5513H17.4713V17.7638H18.5012C18.6512 17.7638 18.8012 17.7638 18.9137 17.8263C18.9726 17.8554 19.0217 17.901 19.055 17.9577C19.0883 18.0143 19.1044 18.0794 19.1012 18.145C19.1012 18.295 19.045 18.4137 18.9338 18.4825L18.9313 18.4813ZM25.3713 19.7962H23.75V20.5462H25.38C26.225 20.5462 26.6925 20.1988 26.6925 19.4412C26.6925 19.0913 26.61 18.8813 26.4587 18.7137C26.2675 18.5475 25.9688 18.4725 25.5462 18.455L25.0763 18.4362C24.9463 18.4362 24.8512 18.4363 24.7575 18.3988C24.7015 18.3821 24.6526 18.3472 24.6187 18.2997C24.5847 18.2522 24.5676 18.1946 24.57 18.1362C24.57 18.0238 24.5912 17.9287 24.6825 17.8737C24.7864 17.817 24.9044 17.791 25.0225 17.7987H26.56V17.0462H24.8725C23.9925 17.0462 23.675 17.5925 23.675 18.0963C23.675 19.2213 24.645 19.165 25.4338 19.1838C25.5637 19.1838 25.6588 19.2025 25.715 19.2587C25.7725 19.2962 25.8175 19.3913 25.8175 19.4837C25.8175 19.58 25.7737 19.6712 25.7175 19.7087C25.6425 19.775 25.53 19.7962 25.3713 19.7962ZM0 0V12.62L1.0125 10.275H3.2L3.48125 10.855V10.275H6.035L6.5975 11.55L7.14375 10.2838H15.2712C15.64 10.2838 15.9712 10.355 16.2162 10.5788V10.2913H18.45V10.5788C18.8337 10.3663 19.3075 10.2913 19.85 10.2913H23.1075L23.4075 10.8738V10.2913H25.805L26.1225 10.8725V10.29H28.445V15.225H26.0875L25.6375 14.475V15.2063H22.6962L22.3762 14.4187H21.6475L21.31 15.1863H19.7938C19.1938 15.1863 18.7437 15.0563 18.4438 14.8863V15.1863H14.8312V14.0813C14.8312 13.9313 14.7938 13.9313 14.7 13.9125H14.5687V15.2075H7.58375V14.6075L7.32125 15.2075H5.8625L5.61 14.6075V15.1888H2.79375L2.47375 14.4088H1.75L1.43 15.1888H0V30H29.7325V21.115C29.395 21.2838 28.9662 21.34 28.5163 21.34H26.3625V21.0212C26.1 21.2275 25.65 21.34 25.22 21.34H18.3875V20.215C18.3875 20.065 18.365 20.065 18.2375 20.065H18.1438V21.3425H15.8938V20.01C15.5212 20.18 15.09 20.1975 14.7337 20.18H14.4662V21.3237H11.7412L11.0662 20.5525L10.3538 21.3025H5.9275V16.39H10.44L11.0875 17.1425L11.78 16.3925H14.795C15.145 16.3925 15.72 16.43 15.9725 16.6737V16.3738H18.6938C18.9462 16.3738 19.4988 16.43 19.8225 16.655V16.355H23.9037V16.655C24.1075 16.45 24.5388 16.355 24.9075 16.355H27.27V16.655C27.5125 16.4675 27.85 16.355 28.32 16.355H29.79V0H0ZM26.445 18.6938L26.4587 18.7137C26.4713 18.7262 26.4875 18.7262 26.4975 18.7388L26.445 18.6938ZM29.785 16.3525H29.8662V17.0462H29.785V16.3525ZM29.8312 18.7875V18.7812C29.7937 18.75 29.7738 18.7213 29.7375 18.6938C29.55 18.5025 29.25 18.425 28.7825 18.4125L28.3325 18.3975C28.2188 18.4021 28.105 18.3895 27.995 18.36C27.939 18.3434 27.8901 18.3085 27.8562 18.261C27.8222 18.2134 27.8051 18.1559 27.8075 18.0975C27.8075 17.9842 27.845 17.8992 27.92 17.8425C28.015 17.7863 28.1075 17.78 28.2575 17.78H29.7863V17.045H28.1825C27.32 17.045 26.9825 17.5912 26.9825 18.095C26.9825 19.22 27.9575 19.1637 28.745 19.1825C28.875 19.1825 28.97 19.2013 29.025 19.2575C29.0825 19.295 29.12 19.39 29.12 19.4825C29.12 19.57 29.0775 19.655 29.0075 19.7075C28.9513 19.7775 28.8375 19.795 28.67 19.795H27.06V20.5513H28.6687C29.1937 20.5513 29.5862 20.4037 29.7937 20.1012H29.8312C29.9438 19.9338 30 19.7262 30 19.4475C30 19.1475 29.9438 18.96 29.8312 18.79V18.7875ZM23.2463 17.76V17.0312H20.4525V20.5725H23.2463V19.8412H21.2838V19.1287H23.2V18.3988H21.285V17.7612M16.8875 10.9837H17.7437V14.5H16.8888L16.8875 10.9837ZM16.4075 11.9288L16.3988 11.9362C16.3988 11.5437 16.2362 11.3113 15.9738 11.1562C15.7025 11 15.3862 10.9875 14.9613 10.9875H13.0375V14.5125H13.88V13.22H14.78C15.08 13.22 15.2675 13.2575 15.3888 13.37C15.5413 13.54 15.5225 13.8425 15.5225 14.055V14.4975H16.3687V13.8062C16.3687 13.4937 16.3487 13.3375 16.2312 13.1613C16.1215 13.0286 15.9795 12.9266 15.8187 12.865C16.0338 12.7775 16.4088 12.49 16.4088 11.9275L16.4075 11.9288ZM15.3387 12.4237H15.32C15.2075 12.4913 15.0762 12.4937 14.9075 12.4937H13.875V11.715H14.9062C15.0563 11.715 15.2063 11.72 15.3188 11.7775C15.4313 11.8275 15.5062 11.9375 15.5062 12.09C15.5062 12.2425 15.4475 12.365 15.3387 12.4225V12.4237ZM19.9 11.7163H20.69V10.9662H19.885C19.305 10.9662 18.88 11.0975 18.61 11.3787C18.2525 11.7537 18.1575 12.2413 18.1575 12.7663C18.1575 13.4062 18.3112 13.8075 18.6075 14.1087C18.8975 14.4062 19.4137 14.4963 19.82 14.4963H20.795L21.1138 13.7125H22.8512L23.1787 14.4963H24.8787V11.8588L26.4688 14.4963H27.6562L27.6588 14.4987V10.9825H26.8038V13.4362L25.3288 10.9862H24.0537V14.25L22.6375 10.93H21.3825L20.2038 13.705H19.8288C19.6075 13.705 19.3763 13.6675 19.2438 13.5375C19.0875 13.35 19.0112 13.0875 19.0112 12.71C19.0112 12.3538 19.1112 12.0725 19.2537 11.9225C19.42 11.7537 19.5938 11.7163 19.8988 11.7163H19.9ZM21.985 11.5813L22.565 12.9788V12.9813H21.4025L21.985 11.5813ZM2.975 13.7125L3.2925 14.4975H5V11.7412L6.215 14.4975H6.945L8.16125 11.745L8.18 14.4975H9.0425V10.985H7.6475L6.63875 13.365L5.54375 10.9837H4.17875V14.3125L2.75625 10.9837H1.51L0.0125 14.4963H0.9125L1.2375 13.7137L2.975 13.7125ZM2.115 11.5813L2.69 12.9788L2.68625 12.9813H1.5425L2.11375 11.5813H2.115ZM14.82 17.025H12.1425L11.08 18.1788L10.0487 17.0263H6.6825V20.5513H10L11.0687 19.3862L12.0988 20.5487H13.7262V19.3737H14.7738C15.5238 19.3737 16.2362 19.1688 16.2362 18.1925L16.2288 18.1887C16.2288 17.2137 15.4812 17.0263 14.8187 17.0263L14.82 17.025ZM9.5875 19.8162L9.57 19.8137H7.525V19.1175H9.3625V18.4H7.525V17.7625H9.625L10.5412 18.7875L9.58625 19.8175L9.5875 19.8162ZM12.89 20.2288L11.6025 18.795L12.89 17.41V20.2262V20.2288ZM14.8312 18.6562H13.725V17.76H14.8312C15.1312 17.76 15.3562 17.8825 15.3562 18.19C15.3562 18.4937 15.1687 18.655 14.8312 18.655V18.6562ZM12.4587 11.7163V10.9837H9.6625V14.5H12.4587V13.775H10.5V13.07H12.4088V12.35H10.5V11.7163" fill="#F8F8F8"/>
</g>
<defs>
<clipPath id="clip0_3_162">
<rect width="30" height="30" fill="white"/>
</clipPath>
</defs>
</svg>
