<svg width="25" height="25" viewBox="0 0 25 25" fill="none" xmlns="http://www.w3.org/2000/svg">
<path fill-rule="evenodd" clip-rule="evenodd" d="M8.33341 6.94444C8.33341 5.83938 8.7724 4.77957 9.5538 3.99817C10.3352 3.21676 11.395 2.77778 12.5001 2.77778C13.6052 2.77778 14.665 3.21676 15.4464 3.99817C16.2278 4.77957 16.6667 5.83938 16.6667 6.94444H8.33341ZM5.55564 6.94444C5.55564 5.10266 6.28728 3.33632 7.58962 2.03398C8.89195 0.731645 10.6583 0 12.5001 0C14.3419 0 16.1082 0.731645 17.4105 2.03398C18.7129 3.33632 19.4445 5.10266 19.4445 6.94444H23.6112C23.8041 6.94443 23.995 6.98462 24.1715 7.06244C24.348 7.14027 24.5064 7.25402 24.6366 7.39645C24.7667 7.53888 24.8658 7.70686 24.9274 7.88969C24.989 8.07252 25.0119 8.26618 24.9945 8.45833L23.8348 21.2111C23.7406 22.2463 23.2627 23.209 22.4952 23.91C21.7276 24.611 20.7257 24.9998 19.6862 25H5.31397C4.27446 24.9998 3.27257 24.611 2.50499 23.91C1.73742 23.209 1.25961 22.2463 1.16536 21.2111L0.00563656 8.45833C-0.0117277 8.26618 0.0111331 8.07252 0.0727617 7.88969C0.13439 7.70686 0.233435 7.53888 0.363581 7.39645C0.493728 7.25402 0.652122 7.14027 0.828667 7.06244C1.00521 6.98462 1.19603 6.94443 1.38897 6.94444H5.55564Z" fill="#F8F8F8"/>
</svg>
