<svg width="42" height="25" viewBox="0 0 42 25" fill="none" xmlns="http://www.w3.org/2000/svg">
<path d="M20.8305 2.67329C22.3642 3.84192 23.604 5.33391 24.4559 7.03635C25.3079 8.73878 25.7497 10.607 25.748 12.4997C25.7489 14.3919 25.3065 16.2595 24.4542 17.9613C23.602 19.6631 22.3622 21.1544 20.8286 22.3225C19.2951 21.154 18.0555 19.6623 17.2036 17.9602C16.3516 16.2581 15.9097 14.3902 15.9111 12.4979C15.9094 10.6052 16.3512 8.73694 17.2032 7.03451C18.0551 5.33207 19.2949 3.84008 20.8286 2.67145M19.1806 1.60128C17.5576 2.94703 16.255 4.61883 15.3628 6.50115C14.4705 8.38346 14.01 10.4314 14.0131 12.5034C14.0109 14.5745 14.4718 16.6213 15.3639 18.5026C16.2561 20.3839 17.5583 22.0548 19.1806 23.4C17.2208 24.4679 15.0071 25.0194 12.7597 24.9995C10.5123 24.9796 8.3094 24.3891 6.36996 23.2866C4.43053 22.1841 2.82212 20.6081 1.70461 18.7152C0.587108 16.8224 -0.000568384 14.6785 4.12501e-07 12.4968C0.000569209 10.3152 0.589363 8.1716 1.70785 6.27927C2.82634 4.38693 4.43558 2.81172 6.37559 1.71021C8.3156 0.608696 10.5188 0.0192496 12.7662 0.000463539C15.0137 -0.0183225 17.227 0.534205 19.1863 1.60312M22.4861 23.4C24.108 22.0547 25.4098 20.3837 26.3017 18.5024C27.1935 16.6211 27.6541 14.5743 27.6517 12.5034C27.654 10.4314 27.1928 8.38366 26.2999 6.50167C25.407 4.61968 24.1038 2.94832 22.4804 1.60312C24.4396 0.534205 26.653 -0.0183225 28.9004 0.000463539C31.1478 0.0192496 33.3511 0.608696 35.2911 1.71021C37.2311 2.81172 38.8403 4.38693 39.9588 6.27927C41.0773 8.1716 41.6661 10.3152 41.6667 12.4968C41.6672 14.6785 41.0796 16.8224 39.9621 18.7152C38.8446 20.6081 37.2361 22.1841 35.2967 23.2866C33.3573 24.3891 31.1544 24.9796 28.9069 24.9995C26.6595 25.0194 24.4459 24.4679 22.4861 23.4Z" fill="#F8F8F8"/>
</svg>
