<svg width="31" height="30" viewBox="0 0 31 30" fill="none" xmlns="http://www.w3.org/2000/svg">
<path d="M20.1764 21.7818L15.6602 17.2656C15.4951 17.1006 15.3001 17.0705 15.195 17.0705C15.09 17.0705 14.895 17.1006 14.7299 17.2656L10.1987 21.7968C9.68858 22.3069 8.89337 23.1321 6.23767 23.1321L11.8041 28.6836C12.6481 29.5265 13.7922 30 14.985 30C16.1778 30 17.3218 29.5265 18.1658 28.6836L23.7473 23.1171C22.3819 23.1171 21.2416 22.8471 20.1764 21.7818ZM10.1987 8.20321L14.7299 12.7344C14.8499 12.8544 15.03 12.9295 15.195 12.9295C15.3601 12.9295 15.5401 12.8544 15.6602 12.7344L20.1463 8.24822C21.2116 7.13792 22.4269 6.88286 23.7923 6.88286L18.2108 1.31639C17.3669 0.473463 16.2228 0 15.03 0C13.8372 0 12.6931 0.473463 11.8492 1.31639L6.28268 6.86785C8.92338 6.86785 9.73359 7.73808 10.1987 8.20321Z" fill="#F8F8F8"/>
<path d="M28.6686 11.7742L25.2927 8.38328H23.4022C22.592 8.38328 21.7818 8.71337 21.2266 9.29852L16.7255 13.7997C16.3053 14.2198 15.7502 14.4299 15.1951 14.4299C14.6234 14.4218 14.0762 14.1965 13.6646 13.7997L9.13345 9.25351C8.5633 8.68336 7.78309 8.35327 6.95788 8.35327H4.75229L1.31639 11.8042C0.473463 12.6482 0 13.7922 0 14.985C0 16.1778 0.473463 17.3219 1.31639 18.1659L4.75229 21.6168H6.97288C7.78309 21.6168 8.5633 21.2867 9.14846 20.7165L13.6797 16.1853C14.0998 15.7652 14.6549 15.5552 15.2101 15.5552C15.7652 15.5552 16.3203 15.7652 16.7405 16.1853L21.2567 20.7015C21.8268 21.2717 22.607 21.6018 23.4322 21.6018H25.3227L28.6986 18.2109C29.5451 17.3517 30.0171 16.1924 30.0115 14.9863C30.0058 13.7802 29.5231 12.6254 28.6686 11.7742Z" fill="#F8F8F8"/>
</svg>
