<svg width="48" height="15" viewBox="0 0 48 15" fill="none" xmlns="http://www.w3.org/2000/svg">
<path d="M44.444 14.7835L43.994 12.6089H38.966L38.166 14.768L34.136 14.7758C36.726 8.75838 38.65 4.30283 39.904 1.40528C40.232 0.647552 40.814 0.260955 41.672 0.266753C42.328 0.272552 43.398 0.272551 44.884 0.268685L48 14.7777L44.444 14.7835ZM40.096 9.63015H43.338L42.128 4.17912L40.096 9.63015ZM14.124 0.26482L18.176 0.268685L11.912 14.7854L7.81 14.7816C6.7785 10.9471 5.75983 7.10949 4.754 3.26869C4.554 2.50322 4.158 1.96778 3.396 1.71456C2.26908 1.35076 1.13697 1.00214 0 0.668814L0 0.268685H6.474C7.594 0.268685 8.248 0.792527 8.458 1.86727C8.67 2.94394 9.202 5.68686 10.058 10.0902L14.124 0.26482ZM23.744 0.268685L20.542 14.7835L16.684 14.7777L19.88 0.26482L23.744 0.268685ZM31.564 0C32.718 0 34.172 0.347938 35.008 0.668814L34.332 3.67655C33.576 3.38273 32.332 2.98647 31.286 3C29.766 3.02513 28.826 3.64175 28.826 4.23325C28.826 5.19588 30.458 5.68106 32.138 6.7326C34.054 7.93106 34.308 9.00773 34.284 10.1791C34.258 12.605 32.138 15 27.666 15C25.626 14.971 24.89 14.8067 23.226 14.2345L23.93 11.0954C25.624 11.7796 26.342 11.9981 27.79 11.9981C29.116 11.9981 30.254 11.48 30.264 10.5773C30.272 9.93557 29.864 9.61662 28.376 8.8241C26.888 8.02964 24.8 6.9317 24.828 4.72229C24.862 1.89626 27.632 0 31.564 0Z" fill="#F8F8F8"/>
</svg>
